<svg xmlns="http://www.w3.org/2000/svg" xmlns:xlink="http://www.w3.org/1999/xlink" width="40" zoomAndPan="magnify" viewBox="0 0 30 30.000001" height="40" preserveAspectRatio="xMidYMid meet" version="1.0"><defs><g/><clipPath id="34e9afac53"><path d="M 0.484375 0 L 29.515625 0 L 29.515625 29.03125 L 0.484375 29.03125 Z M 0.484375 0 " clip-rule="nonzero"/></clipPath><clipPath id="4cabc73beb"><path d="M 29.515625 3.628906 L 29.515625 25.402344 C 29.515625 26.367188 29.132812 27.289062 28.453125 27.96875 C 27.773438 28.648438 26.847656 29.03125 25.886719 29.03125 L 4.113281 29.03125 C 3.152344 29.03125 2.226562 28.648438 1.546875 27.96875 C 0.867188 27.289062 0.484375 26.367188 0.484375 25.402344 L 0.484375 3.628906 C 0.484375 1.625 2.109375 0 4.113281 0 L 25.886719 0 C 26.847656 0 27.773438 0.382812 28.453125 1.0625 C 29.132812 1.742188 29.515625 2.667969 29.515625 3.628906 Z M 29.515625 3.628906 " clip-rule="nonzero"/></clipPath><clipPath id="1ee075c3a7"><path d="M 0.484375 0 L 29.515625 0 L 29.515625 29.03125 L 0.484375 29.03125 Z M 0.484375 0 " clip-rule="nonzero"/></clipPath><clipPath id="a05cf29766"><path d="M 29.515625 3.628906 L 29.515625 25.402344 C 29.515625 26.367188 29.132812 27.289062 28.453125 27.96875 C 27.773438 28.648438 26.847656 29.03125 25.886719 29.03125 L 4.113281 29.03125 C 3.152344 29.03125 2.226562 28.648438 1.546875 27.96875 C 0.867188 27.289062 0.484375 26.367188 0.484375 25.402344 L 0.484375 3.628906 C 0.484375 1.625 2.109375 0 4.113281 0 L 25.886719 0 C 26.847656 0 27.773438 0.382812 28.453125 1.0625 C 29.132812 1.742188 29.515625 2.667969 29.515625 3.628906 Z M 29.515625 3.628906 " clip-rule="nonzero"/></clipPath><clipPath id="cf24754e5e"><rect x="0" width="30" y="0" height="30"/></clipPath></defs><g clip-path="url(#34e9afac53)"><g clip-path="url(#4cabc73beb)"><g transform="matrix(1, 0, 0, 1, 0, 0.000000000000005692)"><g clip-path="url(#cf24754e5e)"><g clip-path="url(#1ee075c3a7)"><g clip-path="url(#a05cf29766)"><path fill="#10002b" d="M 0.484375 0 L 29.515625 0 L 29.515625 29.03125 L 0.484375 29.03125 Z M 0.484375 0 " fill-opacity="1" fill-rule="nonzero"/></g></g></g></g></g></g><g fill="#c77dff" fill-opacity="1"><g transform="translate(5.020161, 21.168559)"><g><path d="M 15.046875 0 L 15.015625 -8.78125 L 10.71875 -1.546875 L 9.1875 -1.546875 L 4.90625 -8.59375 L 4.90625 0 L 1.734375 0 L 1.734375 -14.625 L 4.53125 -14.625 L 10 -5.53125 L 15.390625 -14.625 L 18.171875 -14.625 L 18.21875 0 Z M 15.046875 0 "/></g></g></g></svg>